<svg xmlns="http://www.w3.org/2000/svg" style="display: none;">
    <symbol id="double-right-arrow" viewBox="0 0 512.828 512.828"><title>double-right-arrow</title><g> <path d="M33.105,473.415L0,428.339l234.096-171.928L0,84.49l33.104-45.077l264.785,194.459 c7.174,5.269,11.411,13.638,11.411,22.539c0,8.9-4.237,17.27-11.411,22.538L33.105,473.415z"/> </g><g> <path d="M236.635,473.415l-33.105-45.076l234.094-171.928L203.53,84.49l33.104-45.077l264.783,194.459 c7.174,5.268,11.411,13.637,11.411,22.538c0,8.899-4.237,17.271-11.411,22.538L236.635,473.415z"/> </g>
    </symbol>
    <symbol id="check" viewBox="0 0 367.805 367.805"><title>check</title><path style="fill:#3BB54A;" d="M183.903,0.001c101.566,0,183.902,82.336,183.902,183.902s-82.336,183.902-183.902,183.902 S0.001,285.469,0.001,183.903l0,0C-0.288,82.625,81.579,0.29,182.856,0.001C183.205,0,183.554,0,183.903,0.001z"/><polygon style="fill:#D4E1F4;" points="285.78,133.225 155.168,263.837 82.025,191.217 111.805,161.96 155.168,204.801 256.001,103.968 "/></symbol>
    <symbol id="exclamation" viewBox="0 0 511.755 511.755"><title>exclamation</title><path d="M436.891,74.867c-99.819-99.819-262.208-99.819-362.027,0c-99.819,99.797-99.819,262.229,0,362.027 c49.899,49.92,115.456,74.859,181.013,74.859s131.115-24.939,181.013-74.859C536.709,337.096,536.709,174.664,436.891,74.867z M255.877,426.547c-11.776,0-21.333-9.557-21.333-21.333s9.557-21.333,21.333-21.333c11.776,0,21.333,9.557,21.333,21.333 S267.653,426.547,255.877,426.547z M277.211,319.88c0,11.776-9.536,21.333-21.333,21.333c-11.797,0-21.333-9.557-21.333-21.333 V106.547c0-11.776,9.536-21.333,21.333-21.333c11.797,0,21.333,9.557,21.333,21.333V319.88z"/></symbol>
</svg>