<svg xmlns="http://www.w3.org/2000/svg" style="display: none;">
    <symbol id="double-right-arrow" viewBox="0 0 512.828 512.828"><title>double-right-arrow</title><g> <path d="M33.105,473.415L0,428.339l234.096-171.928L0,84.49l33.104-45.077l264.785,194.459 c7.174,5.269,11.411,13.638,11.411,22.539c0,8.9-4.237,17.27-11.411,22.538L33.105,473.415z"/> </g><g> <path d="M236.635,473.415l-33.105-45.076l234.094-171.928L203.53,84.49l33.104-45.077l264.783,194.459 c7.174,5.268,11.411,13.637,11.411,22.538c0,8.899-4.237,17.271-11.411,22.538L236.635,473.415z"/> </g>
    </symbol>
    <symbol id="check" viewBox="0 0 367.805 367.805"><title>check</title><path style="fill:#3BB54A;" d="M183.903,0.001c101.566,0,183.902,82.336,183.902,183.902s-82.336,183.902-183.902,183.902 S0.001,285.469,0.001,183.903l0,0C-0.288,82.625,81.579,0.29,182.856,0.001C183.205,0,183.554,0,183.903,0.001z"/><polygon style="fill:#D4E1F4;" points="285.78,133.225 155.168,263.837 82.025,191.217 111.805,161.96 155.168,204.801 256.001,103.968 "/></symbol>
    <symbol id="exclamation" viewBox="0 0 511.755 511.755"><title>exclamation</title><path d="M436.891,74.867c-99.819-99.819-262.208-99.819-362.027,0c-99.819,99.797-99.819,262.229,0,362.027 c49.899,49.92,115.456,74.859,181.013,74.859s131.115-24.939,181.013-74.859C536.709,337.096,536.709,174.664,436.891,74.867z M255.877,426.547c-11.776,0-21.333-9.557-21.333-21.333s9.557-21.333,21.333-21.333c11.776,0,21.333,9.557,21.333,21.333 S267.653,426.547,255.877,426.547z M277.211,319.88c0,11.776-9.536,21.333-21.333,21.333c-11.797,0-21.333-9.557-21.333-21.333 V106.547c0-11.776,9.536-21.333,21.333-21.333c11.797,0,21.333,9.557,21.333,21.333V319.88z"/></symbol>
    <symbol id="instagram" viewBox="0 0 511 511.9"><title>instagram</title><path d="m510.949219 150.5c-1.199219-27.199219-5.597657-45.898438-11.898438-62.101562-6.5-17.199219-16.5-32.597657-29.601562-45.398438-12.800781-13-28.300781-23.101562-45.300781-29.5-16.296876-6.300781-34.898438-10.699219-62.097657-11.898438-27.402343-1.300781-36.101562-1.601562-105.601562-1.601562s-78.199219.300781-105.5 1.5c-27.199219 1.199219-45.898438 5.601562-62.097657 11.898438-17.203124 6.5-32.601562 16.5-45.402343 29.601562-13 12.800781-23.097657 28.300781-29.5 45.300781-6.300781 16.300781-10.699219 34.898438-11.898438 62.097657-1.300781 27.402343-1.601562 36.101562-1.601562 105.601562s.300781 78.199219 1.5 105.5c1.199219 27.199219 5.601562 45.898438 11.902343 62.101562 6.5 17.199219 16.597657 32.597657 29.597657 45.398438 12.800781 13 28.300781 23.101562 45.300781 29.5 16.300781 6.300781 34.898438 10.699219 62.101562 11.898438 27.296876 1.203124 36 1.5 105.5 1.5s78.199219-.296876 105.5-1.5c27.199219-1.199219 45.898438-5.597657 62.097657-11.898438 34.402343-13.300781 61.601562-40.5 74.902343-74.898438 6.296876-16.300781 10.699219-34.902343 11.898438-62.101562 1.199219-27.300781 1.5-36 1.5-105.5s-.101562-78.199219-1.300781-105.5zm-46.097657 209c-1.101562 25-5.300781 38.5-8.800781 47.5-8.601562 22.300781-26.300781 40-48.601562 48.601562-9 3.5-22.597657 7.699219-47.5 8.796876-27 1.203124-35.097657 1.5-103.398438 1.5s-76.5-.296876-103.402343-1.5c-25-1.097657-38.5-5.296876-47.5-8.796876-11.097657-4.101562-21.199219-10.601562-29.398438-19.101562-8.5-8.300781-15-18.300781-19.101562-29.398438-3.5-9-7.699219-22.601562-8.796876-47.5-1.203124-27-1.5-35.101562-1.5-103.402343s.296876-76.5 1.5-103.398438c1.097657-25 5.296876-38.5 8.796876-47.5 4.101562-11.101562 10.601562-21.199219 19.203124-29.402343 8.296876-8.5 18.296876-15 29.398438-19.097657 9-3.5 22.601562-7.699219 47.5-8.800781 27-1.199219 35.101562-1.5 103.398438-1.5 68.402343 0 76.5.300781 103.402343 1.5 25 1.101562 38.5 5.300781 47.5 8.800781 11.097657 4.097657 21.199219 10.597657 29.398438 19.097657 8.5 8.300781 15 18.300781 19.101562 29.402343 3.5 9 7.699219 22.597657 8.800781 47.5 1.199219 27 1.5 35.097657 1.5 103.398438s-.300781 76.300781-1.5 103.300781zm0 0"/><path d="m256.449219 124.5c-72.597657 0-131.5 58.898438-131.5 131.5s58.902343 131.5 131.5 131.5c72.601562 0 131.5-58.898438 131.5-131.5s-58.898438-131.5-131.5-131.5zm0 216.800781c-47.097657 0-85.300781-38.199219-85.300781-85.300781s38.203124-85.300781 85.300781-85.300781c47.101562 0 85.300781 38.199219 85.300781 85.300781s-38.199219 85.300781-85.300781 85.300781zm0 0"/><path d="m423.851562 119.300781c0 16.953125-13.746093 30.699219-30.703124 30.699219-16.953126 0-30.699219-13.746094-30.699219-30.699219 0-16.957031 13.746093-30.699219 30.699219-30.699219 16.957031 0 30.703124 13.742188 30.703124 30.699219zm0 0"/></symbol>
    <symbol id="snapchat" viewBox="0 0 504 504"><title>snapchat</title><path d="M377.6,0H126C56.8,0,0,56.8,0,126.4V378c0,69.2,56.8,126,126,126h251.6c69.6,0,126.4-56.8,126.4-126.4V126.4 C504,56.8,447.2,0,377.6,0z M402.8,334.8c-1.2,2.4-4,4.8-8.8,7.2c-6.4,3.2-16.4,5.6-29.6,7.6c-1.2,0.4-2.4,1.2-3.2,2.4 c-0.8,1.2-1.2,4-2,7.6l-0.4,2c-0.4,1.6-0.8,3.6-1.2,5.2c-0.8,2-2,3.2-4.4,3.2c-1.2,0-3.2,0-6.4-0.8c-4.4-0.8-10-2-17.2-2 c-4.4,0-8.4,0.4-12.4,1.2c-8.4,1.6-16,6.4-24,12c-10.8,7.6-22.8,16.4-41.2,16.4c-0.8,0-1.6,0-2,0c-0.4,0-0.4,0-0.8,0s-0.8,0-0.8,0 c-18.4,0-30.4-8.8-41.6-16.4c-7.6-5.2-14.8-10.4-23.6-12c-4-0.8-8.4-1.2-12.4-1.2c-7.2,0-12.8,1.2-16.8,2h-0.4 c-2,0.4-4.4,0.8-6.4,0.8c-2.4,0-4-0.8-4.8-3.2c-1.6-2.8-2.4-4.8-2.8-6.8l-0.4-1.2c-0.8-3.2-1.2-6-2.4-7.6c-0.4-1.2-1.6-2-2.8-2 c-13.2-2-23.2-4.8-30-7.6c-4.4-2-7.6-4.4-8.8-6.8c-0.4-0.8-0.4-1.6-0.4-2c0-0.4,0-0.4,0-0.8c1.6-1.6,2.4-2.4,3.6-2.8 c10.4-1.6,20-5.6,28.4-11.2c7.2-4.4,14-10.4,20-17.6c10.4-12,15.6-23.6,16.4-25.6v-0.4c2.8-5.2,3.2-10,1.6-13.6 c-3.2-7.2-12.8-10.4-19.6-12.4L144,248c-1.2-0.4-2.4-0.8-3.2-1.2c-4.8-2-8.4-4-10.4-6c-3.2-2.8-3.6-5.6-3.2-7.2c0.4-2,2-4.4,4.8-6 c3.6-2,8.4-2.8,11.2-1.2c9.2,4.4,16.8,5.6,22.4,2.8c1.6-0.8,2.4-2.4,2.4-4c0-2.4-0.4-4.8-0.4-7.2v-0.4 c-1.2-20.8-2.8-46.8,3.6-61.6c4.8-10.4,10.8-19.2,18.4-26.4c6.4-6,13.6-10.8,22-14.4c14.4-6.4,27.6-7.2,34.4-7.2h6 c6.8,0,20,0.8,34.4,7.2c8.4,3.6,15.6,8.4,22,14.4c7.6,7.2,14,16,18.4,26.4c6.8,14.8,4.8,40.8,3.6,61.2v1.2c0,1.6-0.4,2.8-0.4,4.4 v2c0,1.6,0.8,3.2,2.4,4c1.6,0.8,3.6,1.2,5.6,1.2c0,0,0.4,0,0.8,0c4.4-0.4,9.2-1.6,14.4-4c2-0.8,4-0.8,4.8-0.8c2,0,3.6,0.4,5.6,1.2 c4.4,1.6,7.6,4.8,7.6,8c0,1.2-0.4,3.2-2.8,5.6c-2.4,2.4-6,4.4-11.2,6.8c-0.8,0.4-2,0.8-2.8,0.8l-1.2,0.4 c-6.4,2-16.4,5.2-19.6,12.4c-1.6,3.6-1.2,8.4,1.6,14c0,0.4,0,0.4,0.4,0.8c3.6,8,23.6,47.2,64.8,54c1.6,0.4,2.8,1.6,2.8,3.6 C403.2,333.6,402.8,334.4,402.8,334.8z"/></symbol>
    <symbol id="facebook" viewBox="0 0 512 512"><title>facebook</title><path d="M448,0H64C28.704,0,0,28.704,0,64v384c0,35.296,28.704,64,64,64h192V336h-64v-80h64v-64c0-53.024,42.976-96,96-96h64v80 h-32c-17.664,0-32-1.664-32,16v64h80l-32,80h-48v176h96c35.296,0,64-28.704,64-64V64C512,28.704,483.296,0,448,0z"/></symbol>
    <symbol id="remove" viewBox="0 0 512 512"><title>remove</title><path xmlns="http://www.w3.org/2000/svg" d="m256 0c-141.164062 0-256 114.835938-256 256s114.835938 256 256 256 256-114.835938 256-256-114.835938-256-256-256zm0 0" fill="#ffffff" data-original="#f44336" style="" class=""/><path xmlns="http://www.w3.org/2000/svg" d="m350.273438 320.105469c8.339843 8.34375 8.339843 21.824219 0 30.167969-4.160157 4.160156-9.621094 6.25-15.085938 6.25-5.460938 0-10.921875-2.089844-15.082031-6.25l-64.105469-64.109376-64.105469 64.109376c-4.160156 4.160156-9.621093 6.25-15.082031 6.25-5.464844 0-10.925781-2.089844-15.085938-6.25-8.339843-8.34375-8.339843-21.824219 0-30.167969l64.109376-64.105469-64.109376-64.105469c-8.339843-8.34375-8.339843-21.824219 0-30.167969 8.34375-8.339843 21.824219-8.339843 30.167969 0l64.105469 64.109376 64.105469-64.109376c8.34375-8.339843 21.824219-8.339843 30.167969 0 8.339843 8.34375 8.339843 21.824219 0 30.167969l-64.109376 64.105469zm0 0" fill="#5c5c5c" data-original="#fafafa" style="" class=""/></symbol>
</svg>